<svg width="178" height="21" viewBox="0 0 178 21" xmlns="http://www.w3.org/2000/svg"><title>logo</title><g fill="none" fill-rule="evenodd"><path d="M23.603 6.496l1.903-4.08C23.493 1.09 20.626.19 17.786.19c-4.66 0-7.722 2.337-7.722 6.025 0 6.98 10.175 4.954 10.175 8.304 0 1.04-.938 1.603-2.428 1.603-2.013 0-5.018-1.24-7.004-2.984L8.85 17.163c2.317 1.943 5.68 3.153 8.907 3.153 4.302 0 7.777-2.055 7.777-6.08 0-7.093-10.176-5.236-10.176-8.5 0-.9.8-1.352 2.013-1.352 1.6 0 4.193.93 6.233 2.11zm21.62-6.08h-5.047L35.71 8.89 31.13.415h-5.047L33.2 13.984v6.164h5.046v-6.305L45.223.416zm1.737 0v19.732h4.715V8.326l8.77 11.822h4.412V.416H60.17v11.88L51.4.415h-4.44zm21.675 0v19.732H84.16v-4.11H73.68v-3.715h9.21v-4.11h-9.21V4.526h10.204V.416h-15.25zm35.93 19.732H98.86l-2.813-5.46h-3.75v5.46h-5.047V.416h8.687c5.13 0 8.052 2.534 8.052 6.925 0 2.984-1.214 5.18-3.447 6.362l4.026 6.446zM92.296 4.526v6.052h3.667c2.04 0 3.226-1.07 3.226-3.068 0-1.943-1.185-2.984-3.226-2.984h-3.667zM106.44.416v4.138h9.845L106.082 16.8v3.348h17.125V16.01h-10.37l10.205-12.216V.416h-16.6zm19.414 0v19.732h5.047V.416h-5.046zm17.29 0c4.936 0 7.777 2.534 7.777 6.925 0 4.645-2.84 7.347-7.776 7.347h-3.447v5.46h-5.046V.418h8.494zm-.248 10.162c2.04 0 3.226-1.07 3.226-3.068 0-1.943-1.185-2.984-3.226-2.984h-3.2v6.052h3.2z" fill="#FFF"/><g fill="#FED427"><path d="M153.182.444h3.535l10.253 10.004-10.253 9.7h-3.535l10.252-9.7"/><path d="M158.697.444h3.535l10.253 10.004-10.253 9.7h-3.535l10.252-9.7"/><path d="M164.212.444h3.535L178 10.448l-10.253 9.7h-3.535l10.253-9.7"/></g><path fill="#FED427" d="M.136.444h4.136v19.704H.136z"/></g></svg>